<?xml version="1.0" encoding="UTF-8"?>
<svg xmlns="http://www.w3.org/2000/svg" width="45" height="45" version="1.1">
  <path
    style="stroke-width:0.857964"
    d="m 0,6.5 1.8402555,1.9499995 c 0,0 5.2044721,5.6000375 5.2044721,14.0499965 0,8.449959 -5.2044721,14.049997 -5.2044721,14.049997 L 0,38.499992 h 15.785943 c 2.215737,1e-6 7.075506,0.0196 12.536741,-1.925 C 33.78392,34.630382 40.260455,30.125382 45,22.499996 H 43.389777 45 C 35.51982,7.2474723 20.162598,6.5 15.785943,6.5 Z M 5.4057507,8.8999991 H 15.785943 c 4.310038,0 16.826239,-0.1041653 25.734823,13.5999969 -4.386051,6.743258 -9.680922,10.147125 -14.463258,11.849997 -4.932493,1.756339 -9.055829,1.750001 -11.271565,1.75 H 5.4345048 c 1.7239408,-2.486746 4.3706068,-7.239478 4.3706068,-13.599997 0,-6.378682 -2.67622,-11.120145 -4.3993609,-13.5999969 z"
    fill-rule="evenodd"
  />
</svg>