<?xml version="1.0" encoding="UTF-8"?>
<svg xmlns="http://www.w3.org/2000/svg" width="45" height="45" version="1.1">
  <g transform="translate(-18.34375,-5)" fill-rule="evenodd">
    <path
      style="stroke-width:0.829156"
      d="m 23.265625,41.525 c -1.331142,2.18163 -1.875,2.475 -1.875,2.475 H 18.34375 l 1.666667,-2.010937 c 0,0 4.713541,-5.775042 4.713541,-14.489063 0,-8.714021 -4.713541,-14.489062 -4.713541,-14.489062 L 18.34375,11 h 3.046875 c 0.651042,0.773438 1.1849,1.366406 1.848958,2.475 1.5606,2.557343 3.984375,7.446986 3.984375,14.025 0,6.559286 -2.413916,11.450521 -3.958333,14.025 z"
    />

    <path
      style="stroke-width:0.829156"
      d="m 23.135417,11 1.666666,2.010938 c 0,0 4.713542,5.775041 4.713542,14.489062 0,8.714021 -4.713542,14.489063 -4.713542,14.489063 L 23.135417,44 h 14.296875 c 2.006733,0 6.408083,0.02022 11.354166,-1.985156 C 53.732542,40.009467 59.051283,35.363677 63.34375,27.5 H 62.432292 63.34375 C 54.757825,11.770831 41.3961,11 37.432292,11 Z m 4.895833,2.475 h 9.401042 c 3.903475,0 15.239041,-0.107415 23.307291,14.025 C 56.767258,34.453983 51.97185,37.964226 47.640625,39.720312 43.173408,41.531534 39.439025,41.525 37.432292,41.525 h -9.375 c 1.561325,-2.564455 3.958333,-7.465714 3.958333,-14.025 0,-6.578014 -2.423775,-11.467657 -3.984375,-14.025 z"
    />
  </g>
</svg>