<?xml version="1.0" encoding="UTF-8" standalone="no"?>
<svg
   xmlns:dc="http://purl.org/dc/elements/1.1/"
   xmlns:cc="http://creativecommons.org/ns#"
   xmlns:rdf="http://www.w3.org/1999/02/22-rdf-syntax-ns#"
   xmlns:svg="http://www.w3.org/2000/svg"
   xmlns="http://www.w3.org/2000/svg"
   xmlns:sodipodi="http://sodipodi.sourceforge.net/DTD/sodipodi-0.dtd"
   xmlns:inkscape="http://www.inkscape.org/namespaces/inkscape"
   inkscape:version="1.0 (4035a4fb49, 2020-05-01)"
   sodipodi:docname="xor.svg"
   id="svg112"
   version="1.1"
   height="45"
   width="45">
  <metadata
     id="metadata118">
    <rdf:RDF>
      <cc:Work
         rdf:about="">
        <dc:format>image/svg+xml</dc:format>
        <dc:type
           rdf:resource="http://purl.org/dc/dcmitype/StillImage" />
        <dc:title></dc:title>
      </cc:Work>
    </rdf:RDF>
  </metadata>
  <defs
     id="defs116" />
  <sodipodi:namedview
     lock-margins="true"
     inkscape:current-layer="g110"
     inkscape:window-maximized="0"
     inkscape:window-y="130"
     inkscape:window-x="623"
     inkscape:cy="23.219491"
     inkscape:cx="15.248981"
     inkscape:zoom="12.067956"
     showgrid="true"
     id="namedview114"
     inkscape:window-height="988"
     inkscape:window-width="1466"
     inkscape:pageshadow="2"
     inkscape:pageopacity="0"
     guidetolerance="10"
     gridtolerance="10"
     objecttolerance="10"
     borderopacity="1"
     bordercolor="#666666"
     pagecolor="#ffffff">
    <inkscape:grid
       originy="0"
       originx="0"
       id="grid128"
       type="xygrid" />
  </sodipodi:namedview>
  <g
     transform="translate(-18.34375,-5)"
     id="g110"
     fill-rule="evenodd">
    <path
       style="stroke-width:0.829156"
       id="path106"
       d="m 23.265625,41.525 c -1.331142,2.18163 -1.875,2.475 -1.875,2.475 H 18.34375 l 1.666667,-2.010937 c 0,0 4.713541,-5.775042 4.713541,-14.489063 0,-8.714021 -4.713541,-14.489062 -4.713541,-14.489062 L 18.34375,11 h 3.046875 c 0.651042,0.773438 1.1849,1.366406 1.848958,2.475 1.5606,2.557343 3.984375,7.446986 3.984375,14.025 0,6.559286 -2.413916,11.450521 -3.958333,14.025 z" />
    <path
       style="stroke-width:0.829156"
       sodipodi:nodetypes="ccsccsscccsccscsscsc"
       id="path108"
       d="m 23.135417,11 1.666666,2.010938 c 0,0 4.713542,5.775041 4.713542,14.489062 0,8.714021 -4.713542,14.489063 -4.713542,14.489063 L 23.135417,44 h 14.296875 c 2.006733,0 6.408083,0.02022 11.354166,-1.985156 C 53.732542,40.009467 59.051283,35.363677 63.34375,27.5 H 62.432292 63.34375 C 54.757825,11.770831 41.3961,11 37.432292,11 Z m 4.895833,2.475 h 9.401042 c 3.903475,0 15.239041,-0.107415 23.307291,14.025 C 56.767258,34.453983 51.97185,37.964226 47.640625,39.720312 43.173408,41.531534 39.439025,41.525 37.432292,41.525 h -9.375 c 1.561325,-2.564455 3.958333,-7.465714 3.958333,-14.025 0,-6.578014 -2.423775,-11.467657 -3.984375,-14.025 z" />
  </g>
</svg>
